<svg xmlns="http://www.w3.org/2000/svg" viewBox="0 0 33.9 33.1" fill="#369"><path class="st0" d="M15.1 33.1C6.8 33.1 0 26.4 0 18 0 9.7 6.8 3 15.1 3c.1 0 .3.1.4.1s.1.2.1.4v14.4L25.7 28c.1.1.1.2.1.4 0 .1-.1.3-.1.4-2.8 2.8-6.6 4.3-10.6 4.3zM14.6 4C7 4.2 1 10.5 1 18c0 7.8 6.3 14.1 14.1 14.1 3.6 0 7-1.3 9.6-3.7l-9.9-10c-.1-.1-.1-.2-.1-.3V4z"/><path class="st0" d="M29.1 28.6c-.1 0-.3-.1-.4-.1L18.4 18.1c-.1-.1-.1-.2-.1-.3v-.1c0-.1.1-.3.1-.4.1-.1.2-.1.4-.1h14.6c.3 0 .5.2.5.5v.1c0 4.1-1.6 7.9-4.5 10.7-.1.1-.2.1-.3.1zm-9.2-10.5l9.2 9.3c2.4-2.5 3.7-5.8 3.8-9.3h-13zm12.4-2.7H17.7c-.3 0-.5-.2-.5-.5V.5c0-.3.2-.5.5-.5 8.2 0 15 6.7 15.1 14.9 0 .1-.1.3-.1.4-.2.1-.3.1-.4.1zm-14.1-1h13.6C31.4 7.1 25.5 1.3 18.2 1v13.4z"/></svg>