<svg xmlns="http://www.w3.org/2000/svg" viewBox="0 0 470 492" fill="#369"><path class="st0" d="M427 170.2V7.9c.1-2.1-.7-4.1-2.1-5.6-1.4-1.5-3.4-2.3-5.5-2.3h-314C101 0 97 3.5 97 7.9V96H47.7c-12.7 0-24.8 5-33.8 13.9S0 131.1 0 143.7V444c-.1 12.7 5 24.9 13.9 33.9 9 9 21.1 14.1 33.8 14.1h374.5c12.7 0 24.9-5.1 33.8-14.1 9-9 14-21.2 13.9-33.9V217.9c0-24.5-18.5-45.1-42.9-47.7zM411 16v154H113V16h298zM16 444.1V143.7c0-8.4 3.3-16.5 9.2-22.5 6-6 14.1-9.3 22.5-9.2H97v58.1c-24 2.2-43 22.8-43 47.8V476h-6.3c-8.4 0-16.6-3.4-22.5-9.4-5.9-6-9.3-14.1-9.2-22.5zm438 0c.1 8.4-3.3 16.6-9.2 22.6-6 6-14.1 9.4-22.5 9.4H70V217.9c-.1-8.4 3.2-16.6 9.2-22.6 5.9-6 14-9.4 22.5-9.4h320.6c8.4 0 16.6 3.4 22.5 9.4 6 6 9.3 14.1 9.2 22.6v226.2z"/><path class="st0" d="M328.4 222.7c-2.7-3.1-7.3-3.6-10.7-1.2-26.6 19.2-45.8 9.8-52.9 4.9-2.8-1.9-6.4-1.9-9.2 0-7 4.9-26.3 14.3-52.9-4.9-3.3-2.4-8-1.9-10.7 1.2l-35.4 40.2c-1.4 1.6-2.2 3.8-2 6 .2 2.2 1.3 4.2 3 5.6l7.9 6.3c14.7 11.6 12.6 21.3 3.1 45.9l-.5 1.4c-5.1 13-10.8 27.7-11 43.9-.2 19 7.3 36.3 22.9 52.9 16.1 16.9 32.6 16.9 44.7 16.9 8.1.1 20.4 3.4 28.3 12.6 1.5 1.7 3.6 2.7 5.8 2.8h.2c2.2 0 4.3-.9 5.8-2.5 9-9.4 21.7-12.8 29.8-12.9h3.9c.8 0 1.8 0 2.7-.1h1.4c10.7-.5 24.8-2.8 38.1-16.9 35.4-37.7 21.2-74 11.8-98.1-1.7-4.4-2.9-7.7-3.9-10.6-2.6-7.6-3.8-13-3.8-17.5 0-4.8 1.3-10.6 10.4-17.9l7.8-6.3c1.7-1.4 2.8-3.4 3-5.6.2-2.2-.5-4.3-2-6l-35.6-40.1zm16.7 45.4c-11.1 8.8-16.4 18.4-16.5 30.2-.1 6.3 1.4 13.4 4.6 22.8 1.1 3.1 2.4 6.6 4.2 11.2 9.4 23.9 20 51-8.5 81.3-9.3 9.8-18.5 11.5-27.2 11.9h-7.4c-12.8.4-25.1 4.7-35.2 12.5-9.8-7.8-21.9-12.2-34.5-12.5-11.2 0-21.8 0-33.1-11.9-28.2-30-18.3-55.4-8.6-79.9l.6-1.4c8.5-21.7 17.2-44.2-8-64.2l-1.3-1 25.3-28.7c20.8 12.6 42.7 14 60.8 3.9 18 10.1 40 8.7 60.8-3.9l25.3 28.7-1.3 1z"/><path class="st0" d="M306.2 320.5l-26.8-3.9-12-24.3c-1.3-2.7-4.1-4.5-7.2-4.5-3 0-5.8 1.7-7.2 4.5l-12 24.3-26.8 3.9c-3 .4-5.5 2.5-6.5 5.4-.9 2.9-.2 6.1 2 8.2l19.4 18.9-4.6 26.7c-.5 3 .7 6 3.2 7.8 2.5 1.8 5.7 2 8.4.6l23.9-12.6 23.9 12.6c2.7 1.4 6 1.2 8.4-.6 2.5-1.8 3.7-4.8 3.2-7.8l-4.6-26.7 19.4-18.9c2.2-2.1 3-5.3 2-8.2-.6-2.8-3.1-4.9-6.1-5.4zm-29.1 24c-1.9 1.8-2.7 4.5-2.3 7.1l2.5 14.8-13.3-7c-2.3-1.2-5.1-1.2-7.4 0l-13.3 7 2.5-14.8c.4-2.6-.4-5.2-2.3-7.1L232.7 334l14.9-2.2c2.6-.4 4.9-2 6-4.4l6.7-13.5 6.7 13.5c1.2 2.4 3.4 4 6 4.4l14.9 2.2-10.8 10.5zM145.4 56h94c4.4 0 8-3.6 8-8s-3.6-8-8-8h-94c-4.4 0-8 3.6-8 8s3.6 8 8 8zm0 30h234c4.4 0 8-3.6 8-8s-3.6-8-8-8h-234c-4.4 0-8 3.6-8 8s3.6 8 8 8zm0 30h234c4.4 0 8-3.6 8-8s-3.6-8-8-8h-234c-4.4 0-8 3.6-8 8s3.6 8 8 8zm0 30h234c4.4 0 8-3.6 8-8s-3.6-8-8-8h-234c-4.4 0-8 3.6-8 8s3.6 8 8 8z"/></svg>