<svg xmlns="http://www.w3.org/2000/svg" viewBox="0 0 284 483" fill="#369"><path class="st0" d="M284 46c0-25.4-20.6-46-46-46H46C20.6 0 0 20.6 0 46v391c0 25.4 20.6 46 46 46h192c25.4 0 46-20.6 46-46V46zm-12 331H12V91h260v286zm-33.9 95H45.9C27.1 472 12 456.4 12 437.6V389h260v48.6c0 18.8-15.1 34.4-33.9 34.4zM272 79H12V46.4C12 27.6 27.1 12 45.9 12h192.3c18.7 0 33.9 15.6 33.9 34.4V79z"/><path class="st0" d="M176 37h-68c-3.3 0-6 2.7-6 6s2.7 6 6 6h68c3.3 0 6-2.7 6-6s-2.7-6-6-6zm-34 366.6c-14.9 0-26.9 12.1-26.9 26.9 0 14.9 12.1 26.9 26.9 26.9 14.9 0 26.9-12.1 26.9-26.9 0-14.9-12-26.9-26.9-26.9zm0 41.9c-8.3 0-14.9-6.7-14.9-14.9 0-8.3 6.7-14.9 14.9-14.9 8.3 0 14.9 6.7 14.9 14.9s-6.6 14.8-14.9 14.9zM74.7 319.7l63.9 43.6c2.1 1.4 4.7 1.4 6.8 0l64-43.6c19.4-13.2 34.7-41.9 34.7-65.4v-89.6c0-2.3-1.4-4.4-3.4-5.4l-95.9-47.1c-1.7-.8-3.6-.8-5.3 0l-95.9 46.9c-2.1 1-3.4 3.1-3.5 5.4v89.8c-.1 23.5 15.2 52.2 34.6 65.4zM52 168.3l90-44 90 44.1v85.9c0 19.2-13.5 44.6-29.4 55.4L142 351.1l-60.6-41.3C65.5 299 52 273.6 52 254.4v-86.1z"/><path class="st0" d="M142 306.7c38 0 68.7-30.8 68.7-68.7 0-38-30.8-68.7-68.7-68.7-38 0-68.7 30.8-68.7 68.7 0 37.9 30.8 68.7 68.7 68.7zm0-125.4c31.3 0 56.7 25.4 56.7 56.7 0 31.3-25.4 56.7-56.7 56.7S85.3 269.3 85.3 238c0-31.3 25.4-56.7 56.7-56.7z"/><path class="st0" d="M128.5 260.3c2.3 2.3 6 2.4 8.4.2l38.4-36.3c2.4-2.3 2.6-6.1.3-8.5-2.3-2.4-6.1-2.6-8.5-.3l-.1.1-34 32.2-16-16.4c-2.3-2.4-6.1-2.4-8.5-.1-2.4 2.3-2.4 6.1-.1 8.5l20.1 20.6z"/></svg>