<svg xmlns="http://www.w3.org/2000/svg" viewBox="0 0 33.3 31.4" fill="#369"><path class="st0" d="M30.3 23.4h-1.2c-.3 0-.5-.2-.5-.5s.2-.5.5-.5h1.2c1.1 0 2-.9 2-2V3c0-1.1-.9-2-2-2H3c-1.1 0-2 .9-2 2v17.3c0 1.1.9 2 2 2h14.3c.3 0 .5.2.5.5s-.2.5-.5.5H3c-1.7 0-3-1.4-3-3V3c0-1.7 1.4-3 3-3h27.2c1.7 0 3 1.4 3 3v17.3c.1 1.8-1.3 3.1-2.9 3.1z"/><path class="st0" d="M7 19.5H4.1c-.3 0-.5-.2-.5-.5s.2-.5.5-.5H7c.3 0 .5.2.5.5s-.3.5-.5.5zm7 0h-3.6c-.3 0-.5-.2-.5-.5s.2-.5.5-.5H14c.3 0 .5.2.5.5s-.2.5-.5.5zm18.8-9H.5c-.3 0-.5-.2-.5-.5V5.8c0-.3.2-.5.5-.5h32.3c.3 0 .5.2.5.5V10c0 .3-.2.5-.5.5zM1 9.5h31.3V6.3H1v3.2zm25.1 21.9h-5.5c-1.9 0-3.4-1.5-3.4-3.4v-7.3c0-.8.6-1.4 1.4-1.4h9.6c.8 0 1.4.6 1.4 1.4V28c-.1 1.9-1.6 3.4-3.5 3.4zm-7.5-11c-.2 0-.4.2-.4.4V28c0 1.3 1.1 2.4 2.4 2.4h5.5c1.3 0 2.4-1.1 2.4-2.4v-7.3c0-.2-.2-.4-.4-.4h-9.5z"/><path class="st0" d="M27.1 20.2c-.3 0-.5-.2-.5-.5V17c0-1.5-1.2-2.7-2.7-2.7h-1.2c-1.5 0-2.7 1.2-2.7 2.7v2.7c0 .3-.2.5-.5.5s-.5-.2-.5-.5V17c0-2 1.6-3.7 3.7-3.7H24c2 0 3.7 1.6 3.7 3.7v2.7c-.1.3-.3.5-.6.5zm-3.7 5.3c-.7 0-1.3-.6-1.3-1.3s.6-1.3 1.3-1.3 1.3.6 1.3 1.3-.6 1.3-1.3 1.3zm0-1.6c-.2 0-.3.1-.3.3s.1.3.3.3.3-.1.3-.3-.2-.3-.3-.3z"/><path class="st0" d="M23.4 27.8c-.3 0-.5-.2-.5-.5v-2.9c0-.3.2-.5.5-.5s.5.2.5.5v2.9c0 .3-.3.5-.5.5z"/></svg>