<svg xmlns="http://www.w3.org/2000/svg" viewBox="0 0 162.5 177.9" fill="#369"><path class="st0" d="M69.7 143.9c2.5-3.4 3.7-6.1 1-9.4-1.1-1.4-1.7-3.2-2.5-4.9-4.1-9.7.5-17.1 11-17.7 12.8-.7 18.5 7.8 12.8 19.4-1.9 3.8-5.7 7.5-.6 12.3 4.8-15.2 9.6-30.2 14.1-44.5l37.5 17.1c8.6 3.9 14.7 10.6 16 19.7 1.9 13.8 2.3 27.7 3.4 42H-.1c0-10.3-.1-20.6.1-30.8.1-3.3.7-6.6 1.4-9.9 2-9.5 7.1-16.8 16.1-20.9 12.3-5.7 24.7-11.2 37.8-17.1 4.7 14.4 9.5 29.3 14.4 44.7zM6.2 171.5h148.4c0-7.3.1-14.2 0-21.2-.3-15-5.2-26.8-21.3-30.9-.8-.2-1.5-.6-2.3-1-7-3.2-14-6.5-21.4-9.8-6 19-12 37.5-17.9 56-.4-.1-.7-.1-1.1-.2-3.2-9-6.4-18-10.1-28.4-3.8 10.4-7.1 19.5-10.3 28.5h-1c-5.9-18.6-11.9-37.2-17.8-55.8-11.2 5-22.3 9.3-32.6 14.9-4.1 2.2-7.7 7.1-9.5 11.5-4.6 11.6-2.9 24-3.1 36.4zm73.4-35.2c.6 0 1.2.1 1.7.1 1.9-3.6 4.1-7.1 5.5-10.9.6-1.6-.4-5.3-1.1-5.5-3.4-.6-7-.7-10.3-.1-.8.1-1.8 3.9-1.3 5.4 1.4 3.9 3.7 7.4 5.5 11z"/><path class="st0" d="M81.6 0c9.7-.4 18.1 3.2 24.9 10.7.4.5.8 1.2 1.4 1.4 13.7 6.8 13.1 19.1 11.9 31.5-.3 3.2-.2 5.8 1.3 8.9 1.4 2.8 1.4 7 .5 10.1-4.1 14.1-10 27.3-20.4 38-8.7 9.1-25.1 10.5-36.1 3.6-8.6-5.4-13.7-13.1-17-22.4-1.3-3.6-4.2-6.7-5.6-10.3-2.7-7.2-6.1-14.7-.4-22.2.5-.7.1-2.3 0-3.4C38.4 22.3 57.2.2 81.6 0zM45.8 55.4c.6 6.6.8 12.9 6.1 17.7.7.7 1.3 1.7 1.5 2.7C55 83 58.1 89.5 63.5 94.3c5.7 5.1 12.2 9.2 20.6 7.4 13-2.8 19.8-11.6 23.5-23.6.5-1.7.9-3.7 2.1-4.8 5.4-4.9 5.6-11.1 6-17.7-2-.2-3.5-.4-5.1-.6 5.4-27.4 4.8-29.9-12.3-42.8-9.2-6.9-19.5-8.1-29.6-2.7-18.7 10-25.3 25.3-17 45.9h-5.9z"/></svg>