<svg xmlns="http://www.w3.org/2000/svg" viewBox="0 0 130 334" fill="#307fa7"><path d="M70.4 107.4c21.5 0 41-13 49.2-32.9 8.2-19.9 3.7-42.8-11.5-58C92.8 1.2 69.9-3.3 50 4.9c-19.9 8.2-32.9 27.7-32.9 49.2 0 29.4 23.9 53.2 53.3 53.3zm0-97.5c17.9 0 34 10.8 40.9 27.3 6.8 16.5 3.1 35.6-9.6 48.2C89 98.1 70 101.9 53.4 95c-16.5-6.9-27.3-23-27.3-40.9 0-24.4 19.8-44.2 44.3-44.2zm58.3 131.2c-.6-1.3-1.7-2.2-3.1-2.5-8.7-1.7-17.7-1.8-26.5-.3-19.1 3.3-33.2 14.2-40.6 31.4-1.1 2.5.2 5.3 2.8 6.1 5.3 1.7 10.7 2.5 16.3 2.6 12.1 0 23.7-4.4 34-13 6.8-5.7 12.6-12.6 17-20.3.2 143.8 129.3 142.4 128.7 141.1L128.7 141.1zm-23.1 17.5c-11.1 9.2-23.4 12.5-36.5 9.9 6.5-11.6 17-18.8 31.2-21.3 5.5-.9 11.1-1.2 16.6-.7-3.2 4.5-7 8.6-11.3 12.1zm-70.5 13.1c2 0 3.7-1.3 4.3-3.2 5.6-18 2-35.4-10.4-50.3-5.7-6.8-12.6-12.6-20.3-17-2.6-1.4-5.9.1-6.5 3C.5 113 .4 122 1.9 130.8c3.3 19.1 14.2 33.2 31.4 40.6.6.2 1.2.3 1.8.3zm-2.9-10.9c-11.6-6.5-18.8-17-21.3-31.2-.9-5.5-1.2-11.1-.7-16.6 4.4 3.2 8.5 7 12 11.2 9.2 11 12.6 23.4 10 36.6zm0 0"/><path d="M115.4 222.5H71.1c-.1-.6-.5-1.2-.9-1.7-16.6-18.4-21.7-40.4-15.1-65.2 3.2-11.7 8.4-22.8 15.3-32.7 3.6-4.8-3.5-10.2-7.2-5.5-7.6 10.8-13.3 22.9-16.8 35.7-6.9 25.7-2.3 49.2 13.2 69.4H25.4c-2.7-.2-4.9 2.2-4.5 4.9l15 102.1c.3 2.2 2.2 3.9 4.5 4h60c2.3-.1 4.1-1.8 4.5-4l15-102.1c.2-1.3-.2-2.5-1.1-3.5-.9-.9-2.1-1.5-3.4-1.4zm-5.2 9l-.9 6H31.5l-.9-6h79.6zm-13.7 93H44.3l-11.5-78H108l-11.5 78zM83.1 74.6c-2.2 1.5-5.9 3-10.7 3-5.8 0-11-2.2-14.5-6.4-2.7-3-4.5-7.2-5.2-12.3h-4.4v-3.5h4.1v-1.1c0-1.1.1-2.2.1-3.2h-4.2v-3.6H53c.9-5 3-9.2 5.9-12.1 3.7-3.8 8.3-5.9 14.2-5.9 4.2 0 7.5 1.2 9.5 2.3l-1.4 4.7c-1.8-1.1-4.8-2-8-2-3.9 0-7 1.4-9.5 3.9-2.1 2.1-3.6 5.3-4.3 9.1h20v3.6H58.8c-.1.9-.1 2-.1 3v1.3h20.8v3.5H59.2c.6 4.2 2 7.2 3.9 9.4 2.6 2.8 6.2 4.2 10.1 4.2 3.8 0 7.1-1.4 8.7-2.4l1.2 4.5z"/></svg>