<svg xmlns="http://www.w3.org/2000/svg" viewBox="0 0 348 368" fill="#307fa7"><path d="M124.5 178.8c0-2.5-2-4.5-4.5-4.5H83.3c-2.5 0-4.5 2-4.5 4.5v60.8c0 2.5 2 4.5 4.5 4.5H120c2.5 0 4.5-2 4.5-4.5v-60.8zm-8.2 55.5H87.8v-51h28.5v51zm-67.5-99c0-2.5-2-4.5-4.5-4.5H7.5c-2.5 0-4.5 2-4.5 4.5v103.5c0 2.5 2 4.5 4.5 4.5h36.8c2.5 0 4.5-2 4.5-4.5V135.3zm-8.3 99H12v-94.5h28.5v94.5zM159.7 91.2c8.4 8.8 21.8 10.4 32 4 10.3-6.5 14.5-19.3 10.1-30.6l29.5-27.1c5.8 11.5 19.4 16.8 31.4 12.4 12.1-4.5 18.9-17.3 15.9-29.8-3-12.5-14.9-20.8-27.7-19.3-12.8 1.5-22.4 12.4-22.4 25.3 0 .6 0 1.2.1 1.8l-31.6 29c-8.3-9.3-22.1-11.2-32.6-4.5-10.5 6.7-14.6 20-9.7 31.5l-30.5 25.7c-4.3-7.5-12.1-12.3-20.7-12.8-8.6-.4-16.9 3.5-22 10.5L50.7 85.6c3.6-12.7-3.2-26-15.5-30.7-12.3-4.6-26.2.9-32 12.7-5.8 11.9-1.5 26.2 9.8 33 11.3 6.8 25.9 3.9 33.7-6.8l30.9 21.5c-2 7.4-.6 15.3 3.9 21.5 4.4 6.2 11.5 10.1 19.1 10.6 7.6.5 15.1-2.5 20.3-8.1 5.2-5.6 7.6-13.3 6.5-20.8l32.3-27.3zm94.4-81.7c6.6 0 12.6 4 15.2 10.2 2.5 6.1 1.1 13.2-3.6 17.9-4.7 4.7-11.8 6.1-17.9 3.6-6.1-2.5-10.2-8.5-10.2-15.2 0-9.1 7.4-16.5 16.5-16.5zm-76 47.7c6.7 0 12.6 4 15.2 10.2 2.5 6.1 1.1 13.2-3.6 17.9-4.7 4.7-11.8 6.1-17.9 3.6-6.1-2.5-10.2-8.5-10.2-15.2.1-9.2 7.4-16.5 16.5-16.5zM26.2 95.3c-6.7 0-12.6-4-15.2-10.1-2.5-6.2-1.1-13.3 3.6-18 4.7-4.7 11.8-6.1 17.9-3.6 6.1 2.5 10.2 8.5 10.2 15.2-.1 9.1-7.4 16.5-16.5 16.5zm75.9 43.1c-6.6 0-12.6-4-15.2-10.1-2.5-6.1-1.1-13.2 3.6-17.9 4.7-4.7 11.8-6.1 17.9-3.6 6.1 2.5 10.2 8.5 10.2 15.2 0 9-7.4 16.4-16.5 16.4zm152.7 62.2c-30.1 0-57.3 18.1-68.8 46-11.5 27.8-5.2 59.9 16.1 81.2 21.3 21.3 53.3 27.7 81.2 16.1 27.8-11.5 46-38.7 46-68.8-.1-41.2-33.4-74.5-74.5-74.5zm0 139.9c-26.5 0-50.4-16-60.5-40.4-10.1-24.5-4.5-52.6 14.2-71.4 18.7-18.7 46.9-24.3 71.4-14.2 24.5 10.1 40.4 34 40.4 60.5-.1 36.2-29.4 65.5-65.5 65.5zm0 0"/><path d="M276.8 185.3V82.1c0-2.5-1.7-4.6-4.2-4.6h-37.1c-2.5.1-4.5 2.1-4.5 4.6v103.6c-10.8 2.9-20.9 7.6-30 14v-70.1c0-2.5-1.9-4.9-4.4-4.9h-37.1c-2.5 0-4.3 2.4-4.3 4.9v109.5c-.1 2.4 1.9 4.3 4.3 4.1h8.3c-3.6 10.2-5.5 20.8-5.5 31.6 0 51 41.5 92.6 92.5 92.6s92.3-41.4 92.3-92.4c-.1-42.5-29.1-79.5-70.3-89.7zM240 86.5h27.8v97.1c-4.3-.7-8.7-1-13.1-1-4.9 0-9.8.4-14.6 1.2V86.5zm-75.7 47.3H192v73.3c-8.2 7.9-15.1 17.1-20.4 27.2h-7.4V133.8zm90.5 224.7c-33.8 0-64.2-20.3-77.1-51.5-12.9-31.2-5.8-67.1 18.1-91 23.9-23.9 59.8-31 91-18.1s51.5 43.3 51.5 77.1c-.1 46.1-37.4 83.5-83.5 83.5zm0 0"/><path d="M272.4 301.9c-2.9 2-7.7 3.9-13.9 3.9-7.5 0-14.2-2.9-18.9-8.3-3.5-3.9-5.9-9.3-6.7-16h-5.8V277h5.3v-1.4c0-1.5.1-2.9.2-4.2h-5.5v-4.7h6.1c1.1-6.5 3.9-11.9 7.6-15.7 4.7-4.9 10.8-7.7 18.4-7.7 5.5 0 9.8 1.6 12.4 3l-1.9 6.1c-2.3-1.4-6.2-2.6-10.4-2.6-5 0-9.1 1.8-12.3 5.1-2.8 2.7-4.7 6.9-5.6 11.8h25.9v4.7h-26.8c-.1 1.2-.2 2.6-.2 3.9v1.7h27v4.6H241c.7 5.4 2.6 9.4 5.1 12.2 3.4 3.6 8.1 5.4 13.1 5.4 4.9 0 9.2-1.9 11.3-3.1l1.9 5.8z"/></svg>