<svg xmlns="http://www.w3.org/2000/svg" viewBox="0 0 354.3 351.3" fill="#369"><path class="st0" d="M44.5 351.3V345c0-15.5-.1-31 .1-46.5 0-3.9-1-5.3-5.1-5.1-6.8.3-13.7.1-20.5.1-11.5 0-18.8-7-18.9-18.5-.1-24.3-.1-48.5-.1-72.6v-79.5c0-5.3 1-10.2 4.7-14.4 4.3-4.9 9.8-5.8 15.8-5.8 23.2.1 46.3 0 69.5 0h183.5c13.1 0 20.1 7 20 20v151c-.1 12.6-7 19.6-19.4 19.6-55.2 0-110.3.1-165.5-.1-4.5 0-7.8 1.2-11 4.5-16.2 16.8-32.7 33.3-49 49.9-1.1 1.1-2.2 2-4.1 3.7zm10.7-26.4c2.3-2.2 3.5-3.3 4.7-4.4 11.1-11.3 22.4-22.4 33.3-33.9 3.1-3.2 6.2-4.3 10.5-4.3 56.7.1 113.3.1 170 .1 8.1 0 8.9-.8 8.9-8.9 0-50.2 0-100.3.1-150.5 0-8.6-.6-9.2-9.5-9.2H25.8c-14.9 0-15-2.2-14.9 14.8.1 48.3 0 96.6.1 145 0 7.8 1.1 8.8 9 8.8 9.8 0 19.7.2 29.5-.1 4.4-.1 6.1.9 6 5.7-.5 11.9-.3 23.7-.3 36.9z"/><path class="st0" d="M304.8 248.4v-11.1h28.5c9.8 0 10.1-.3 10.1-10V78.8c0-9.6-.6-10.1-10.2-10.1-9.8 0-19.7-.1-29.5.1-3.8.1-4.9-1.3-4.8-4.9.2-10.5 0-21 0-31.5v-5.9c-1.8 1.6-2.9 2.5-3.9 3.5-11.5 11.6-23 23.2-34.3 34.9-2.6 2.7-5.3 3.9-9.1 3.9-57-.1-114-.1-171 0-8.2 0-9 .9-9 9.3v7.2H60.9c0-4.2-.4-8.2.1-12.1 1.3-9.5 8.3-15.3 18.4-15.4 25-.1 50 0 75 0 31 0 62 .1 93-.2 2.8 0 6.2-1.5 8.2-3.5 16.7-16.5 33.1-33.4 49.6-50.1 1.1-1.2 2.3-2.2 4.3-4.1.1 2.6.3 4.3.3 6 0 15.5.1 31-.1 46.5-.1 4.2 1.1 5.6 5.3 5.4 6.3-.3 12.7-.1 19-.1 13.2 0 20.2 6.7 20.2 19.8v152c-.1 11.7-7.4 18.9-19.1 18.8-10 .1-19.9.1-30.3.1z"/><path class="st0" d="M155.6 131.2h43.7v17.2c0 35.3-.1 70.6.1 105.9 0 4.4-1.1 5.7-5.6 5.6-11.5-.3-23-.1-34.5 0-2.8 0-4.3-.5-4.3-3.8.1-41 .1-82 .1-122.9 0-.5.2-1 .5-2zm10.2 11v25c0 25.5.1 51-.1 76.5 0 4 1.2 5.4 5.1 5.1 4.1-.3 8.3-.3 12.5.1 4.3.4 5.3-1.4 5.2-5.5-.2-26-.1-52-.1-78v-23.2h-22.6zm93.7 117.6h-40.8c-3.5 0-2.8-2.6-2.8-4.6v-84.6h43.6v89.2zm-32.4-78.5v67.5c6.1 0 11.7-.2 17.3.1 4 .2 5.1-1.2 5.1-5.1-.2-14.6-.1-29.3-.1-43.9v-18.6h-22.3zm-89 78.2H94.6v-77.9h43.5v77.9zM105 192.2c0 18.5 0 36.3.1 54 0 .8 1.2 2.3 1.9 2.3 6.7.2 13.5.1 20.6.1 0-18.3.1-35.8-.1-53.3 0-1.1-2-2.9-3.2-3-6.1-.3-12.3-.1-19.3-.1zm-71.2 67.3v-32.9h43.4v32.9H33.8zm32.6-21.8H44.6v10.7h21.8v-10.7z"/></svg>