<svg xmlns="http://www.w3.org/2000/svg" viewBox="0 0 338 364" fill="#307fa7"><path d="M186.9 142.3h132.9c2.5 0 4.5-2 4.5-4.4 0-36.3-14.3-70.8-40.1-97.1h-.1C257.8 14.9 223.3.7 187 .7c-2.5 0-4.5 2-4.4 4.5v132.9c-.1 2.2 1.9 4.2 4.3 4.2zm128.3-9H256l48-48c6.8 15.1 10.6 31.4 11.2 48zm-15.4-56.5l-56.5 56.5h-45.9L280.6 50c7.5 8.1 13.9 17.1 19.2 26.8zM191.5 9.6c16.4.6 32.5 4.3 47.4 10.9l-47.4 47.4V9.6zm0 71l55.9-56c9.7 5.2 18.8 11.6 26.9 19.1l-82.8 82.8V80.6zm0 0"/><path d="M270.8 219.7c2.7-10.9 4.1-22.1 4.1-33.3 0-2.5-2-4.4-4.5-4.4H142V53.5c0-2.5-2-4.5-4.4-4.5-36.5-.1-71.5 14.4-97.2 40.2C14.5 115.5.2 150 .2 186.3c0 75.7 61.6 137.4 137.4 137.4 20.3.1 40.4-4.4 58.7-13.1 7.1 25.9 28.2 45.7 54.5 51.3 26.3 5.6 53.6-4 70.6-24.8 17.1-20.8 21.1-49.4 10.4-74.1-10.6-24.7-34.1-41.4-61-43.3zm-76.4 81.8c-17.7 8.7-37.1 13.2-56.8 13.1C66.8 314.6 9.2 257 9.2 186.2c0-33.9 13.3-66.2 37.5-90.8 23-23 53.8-36.4 86.3-37.5v128.3c0 2.5 2.1 4.6 4.6 4.7h128.3c-.3 9.7-1.8 19.3-4.3 28.7-38.1 2.2-67.8 33.7-67.8 71.8 0 3.5.2 6.8.6 10.1zm71.4 53c-34.6-.1-62.6-28.1-62.8-62.6-.2-34.6 27.5-62.9 62.1-63.3h.7c34.8 0 63 28.2 63 63 0 34.7-28.3 62.9-63 62.9zm0 0"/><path d="M284.3 317.2c-2.9 2-7.8 4-14.1 4-7.6 0-14.4-2.9-19.1-8.4-3.6-4-5.9-9.4-6.8-16.2h-5.8V292h5.4v-1.4c0-1.5.1-2.9.2-4.2h-5.6v-4.7h6.2c1.1-6.6 4-12.1 7.7-15.9 4.8-5 10.9-7.8 18.7-7.8 5.6 0 9.9 1.6 12.5 3l-1.9 6.2c-2.4-1.4-6.3-2.6-10.6-2.6-5.1 0-9.2 1.8-12.4 5.2-2.8 2.7-4.7 7-5.7 12h26.3v4.7h-27.2c-.1 1.2-.2 2.6-.2 4v1.7h27.4v4.6h-26.7c.8 5.5 2.6 9.5 5.2 12.4 3.5 3.7 8.2 5.5 13.3 5.5 5 0 9.3-1.9 11.5-3.1l1.7 5.6z"/></svg>