<svg xmlns="http://www.w3.org/2000/svg" viewBox="0 0 363 348" fill="#307fa7"><path d="M250.8 216.2c-.2-.1-.1-.1-.3-.2l-22-8v-8c-.1-1.9-1.2-3.5-3-4.2h-.2l-12.6-5.1v-1c20.8-8.9 34.9-28.8 36.2-51.4 8.5-3.4 13.3-12.6 11.1-21.6-1.1-4.6-4.4-8.5-8.7-10.3l.8-5.3v-.3c1.4-20.2-7-39.8-22.6-52.6-15.6-12.9-36.4-17.4-55.9-12.1-4.5 1.2-8.5 3.2-12.4 5-.7.3-1.4.7-2 1-1.6.7-2.6 2.3-2.6 4.1 0 4.4-2.2 8.5-5.9 11L135 67.6c-.6.4-1 .9-1.4 1.4l-.9 1.6c-.1.1-.2.3-.2.5-4.2 9.4-6 19.6-5.3 29.8v.3l.8 5.3c-4.4 1.8-7.7 5.7-8.8 10.3-1.9 7.8 1.4 15.9 8.2 20.1.9.5 1.9.9 2.9 1.3 1.2 23.3 16.3 43.1 36.5 51.7v.8l-12.8 5.2h-.1c-1.7.7-2.8 2.3-2.9 4.2v8l-22 8c-.1.1-.3.1-.4.2-10.6 5.3-17.6 15.7-18.7 27.4 0 .1-.2.3-.2.4V291c.2 2.6 2.3 4.6 4.9 4.7h150c2.5 0 4.1-2.2 4.1-4.7v-47c0-.1.2-.3.2-.4-.7-11.7-7.6-22.1-18.1-27.4zm-60.9 11.2l-13.9-14v-20.7c4.5 1.1 9.1 1.6 13.7 1.6 4.7 0 9.4-.6 14-1.7v20.7l-13.8 14.1zm-7.1 5.7l-8.1 5.4-13.5-26.9 21.6 21.5zm35.7-21.6L205 238.4l-8.1-5.4 21.6-21.5zm-2.9-9.9l-2.8 2.8v-4l2.8 1.2zm-59.8-137c5.3-3.5 8.9-9.2 9.7-15.5 3.4-1.8 6.9-3.2 10.5-4.3 16.7-4.4 34.5-.6 47.8 10.4 13.3 11 20.6 27.7 19.4 44.9l-1.1 7.5-.6.8c-.5.7-1.6.3-1.6-.6 0-11.9-9.6-21.5-21.5-21.5h-32.9c-2.6 0-4.8-2.1-4.8-4.8 0-7.9-6.4-14.3-14.3-14.4l-14.2-.1 3.6-2.4zm-15.5 11.2l9.5.1c-5 5.9-8 13.2-8.6 20.9-.3 2.9-1.9 5.5-4.4 7l-.6-3.8c-.5-8.3.9-16.6 4.1-24.2zm-1 59.2c0-2.3-1.6-4.2-3.8-4.5-.8-.3-2.7-1.1-3.4-1.4-3.4-2.2-5-6.3-4-10.2.6-2.6 2.8-4.4 5.5-4.6.6-.1 1.3-.3 1.8-.6 7.8-1 14.1-7.7 14.9-16.1.8-8.8 4.7-15.5 12.5-21.6h3.6c3 0 5.4 2.5 5.4 5.4 0 7.6 6.2 13.7 13.8 13.8h32.9c6.9 0 12.5 5.6 12.5 12.5 0 4 2.4 7.6 6.1 9.2 3.7 1.5 8 .7 10.8-2.2 1.8.7 3.1 2.3 3.6 4.1.2.7.3 1.5.3 2.3.1 4.6-3.1 8.5-7.6 9.3-2.1.4-3.6 2.3-3.5 4.4v.1c0 27.8-22.8 50.4-50.6 50.4-28 .1-50.8-22.5-50.8-50.3zm27.7 69.4l-2.9-2.9 2.9-1.2v4.1zm-48 39.8c1.5-8.4 6.1-16 13.6-19.8l21.2-7.6 15.2 30.3c.8 1.5 2.3 2.5 4.1 2.5.8 0 1.6-.3 2.3-.8l9.7-6.6v44.3h-66v-42.3zm141 42.3h-66v-44.3l10.1 6.6c.8.5 1.7.8 2.6.8.4 0 .8-.1 1.2-.2 1.3-.3 2.3-1.2 2.9-2.3l15.2-30.3 20.9 7.6c7.5 3.9 12.5 11.4 13.2 19.8v42.3zm0 0"/><path d="M200.2 273.7c-2.3 0-4.3 1.4-5.2 3.5-.9 2.1-.4 4.5 1.2 6.1 1.6 1.6 4 2.1 6.1 1.2 2.1-.9 3.5-2.9 3.5-5.2 0-3.1-2.5-5.6-5.6-5.6zm0 9c-3 0-4.5-3.6-2.4-5.8s5.8-.6 5.8 2.4c0 1.9-1.5 3.4-3.4 3.4zm0 0"/><path class="st0" d="M200.2 250.6c-2.3 0-4.3 1.4-5.2 3.5-.9 2.1-.4 4.5 1.2 6.1 1.6 1.6 4 2.1 6.1 1.2 2.1-.9 3.5-2.9 3.5-5.2 0-3-2.5-5.6-5.6-5.6zm0 9c-3 0-4.5-3.6-2.4-5.8s5.8-.6 5.8 2.4c0 1.9-1.5 3.4-3.4 3.4zm162.7-95c0-7.1-2.8-14-7.9-19-5.1-5-11.9-7.8-19-7.8-13.3-.2-24.6 9.5-26.5 22.7h-46.1c-6 0-6 9 0 9h46.1c1.8 11.2 10.6 19.9 21.7 21.7v35.4c-9.6 2.4-15.9 11.6-14.7 21.4 1.2 9.8 9.6 17.1 19.4 17.1 9.9-.1 18.2-7.5 19.2-17.4 1.1-9.8-5.4-18.9-15-21.1v-35.4c13.3-1.9 23-13.3 22.8-26.6zm-44.8 0c0-7.3 4.4-13.8 11.1-16.6 6.7-2.8 14.5-1.2 19.6 3.9 5.1 5.1 6.7 12.9 3.9 19.6-2.8 6.7-9.3 11.1-16.6 11.1-9.9 0-18-8-18-18zm28.5 81c0 4.2-2.6 8.1-6.5 9.7-3.9 1.6-8.4.7-11.4-2.3s-3.9-7.5-2.3-11.4c1.6-3.9 5.5-6.5 9.7-6.5 5.8 0 10.5 4.7 10.5 10.5zm-318.7-98c8.9-.1 16.7-6.1 19-14.8h46.3c6 0 6-9 0-9H46.8c-1.3-6.4-5.9-11.6-12-13.9l32.4-57.1c10.5 3.8 22.2.8 29.6-7.5l18.9 16.3c4.5 3.9 10.4-2.9 5.9-6.8l-19.9-17.2c3.8-9.4 2-20.2-4.6-27.9C90.3 2 79.9-1.3 70 1.2c-9.9 2.5-17.5 10.3-19.7 20.3-2.2 9.9 1.3 20.3 9.2 26.8l-34.3 60.4C15 110.1 7.7 119.1 8.4 129.3c.7 10.3 9.2 18.2 19.5 18.3zM76.6 9.4c7.3 0 13.8 4.4 16.6 11.1 2.8 6.7 1.2 14.5-3.9 19.6-5.1 5.1-12.9 6.7-19.6 3.9-6.7-2.8-11.1-9.3-11.1-16.6 0-10 8.1-18 18-18zM27.9 117.8c5.8 0 10.5 4.7 10.5 10.5s-4.7 10.5-10.5 10.5-10.5-4.7-10.5-10.5 4.7-10.5 10.5-10.5zm75 123H88.1c-1.3-6-5.4-11-10.9-13.5-5.6-2.5-12-2.3-17.4.6-5.4 2.9-9.1 8.2-9.9 14.3-.9 6.1 1.1 12.2 5.5 16.5l-18.8 36.4c-13.3-4.5-27.8 2-33.3 14.9-5.5 12.9-.3 27.9 12.1 34.5 12.4 6.6 27.7 2.6 35.4-9.1 7.6-11.8 4.9-27.4-6.2-36l18.4-36c2 .7 4.1 1.1 6.2 1.2 8.9-.1 16.7-6.1 19-14.8H103c5.9 0 5.9-9-.1-9zm-75 97.8c-7.3 0-13.8-4.4-16.6-11.1-2.8-6.7-1.2-14.5 3.9-19.6 5.1-5.1 12.9-6.7 19.6-3.9 6.7 2.8 11.1 9.3 11.1 16.6 0 10-8.1 18-18 18zm41.2-83.2c-4.2 0-8.1-2.6-9.7-6.5-1.6-3.9-.7-8.4 2.3-11.4s7.5-3.9 11.4-2.3c3.9 1.6 6.5 5.5 6.5 9.7 0 5.8-4.7 10.5-10.5 10.5zm0 0"/><path d="M266.4 76.9c1.2 0 2.3-.5 3.2-1.3l26.8-26.8c8.6 5 19.5 2.7 25.4-5.2 5.9-7.9 5-19.1-2.2-25.9-7.2-6.8-18.4-7.1-26-.8-7.6 6.4-9.2 17.4-3.8 25.7l-26.6 26.6c-2.8 2.8-.8 7.7 3.2 7.7zm39.7-55.5c4.2 0 8.1 2.6 9.7 6.5 1.6 3.9.7 8.4-2.3 11.4s-7.5 3.9-11.4 2.3c-3.9-1.6-6.5-5.5-6.5-9.7 0-5.8 4.7-10.5 10.5-10.5zm0 0"/></svg>