<svg xmlns="http://www.w3.org/2000/svg" viewBox="0 0 297.6 128.9" fill="#fff"><path class="st0" d="M4.1 1.1h33.2v7.2H11.7v12.6h19.7V28H11.7v14.3h25.8v7.2H4.1V1.1zm103.7 34.5c-3.7 9.1-12.4 14.5-22.8 14.5-14.1 0-24.7-10-24.7-25.2C60.3 10 70.9 0 85 0c11.1 0 18.9 6.1 22.1 13.5l-7.4 2.2c-2-3.5-6.5-8.2-14.8-8.2-10 0-16.9 6.9-16.9 17.8 0 11.1 7.2 17.8 16.7 17.8 7.4 0 13-3.9 15.6-9.5l7.5 2zm24.5-34.5h7.6v41.2H164v7.2h-31.7V1.1zm65.3 37.1L193 49.3h-8l20-48.2h8.5l19.7 48.2h-8L220.6 38h-23v.2zm15.7-18.7c-1.7-4.3-3.9-9.8-3.9-9.8h-.2s-2.4 5.6-4.1 9.8l-4.6 11.7H218l-4.7-11.7zm64.4-11.3v41h-7.6v-41H254V1.1h39.5v7.2h-15.8zm-241 111.1c-2.8 5.9-8.5 9.5-15.6 9.5-9.8 0-17.1-7.2-17.1-17.1 0-9.8 7.4-17.1 17.1-17.1 6.1 0 12.4 2.8 15.2 9.8l-2.2.7c-.9-1.5-3.9-8.2-13-8.2-8.7 0-15 6.1-15 15s6.3 15 15 15c6.3 0 11.1-3.5 13.5-8l2.1.4zm26.2-1.3l-4.3 10.2h-2.4l14.3-33h2.4l14.3 33h-2.6L80.3 118H62.9zm12.6-11c-2.6-6.1-3.9-9.3-3.9-9.3s-1.5 3.5-4.1 9.8l-3.7 8.7h15.6l-3.9-9.2zm42.3-11.8c8 0 12.4 3.7 12.4 9.5s-4.1 9.5-12.4 9.5h-7.2v13.9h-2.2v-33h9.4zm0 17.2c6.5 0 10-2.8 10-7.4 0-4.6-3.3-7.6-10-7.6h-7.2v15h7.2zm33.6-17.2h2.2v33h-2.2v-33zm38.6 2.2v30.8h-2.2V97.4h-12.1v-2.2H202v2.2h-12zm37.4 20.6l-4.3 10.2h-2.4l14.3-33h2.4l14.3 33h-2.4L245 118h-17.6zm12.5-11c-2.6-6.1-3.9-9.3-3.9-9.3h-.2s-1.5 3.5-4.1 9.8l-3.7 8.7h15.6l-3.7-9.2zm33-11.8h2.2V126h18.4v2.2h-20.8v-33h.2zM0 73.3h297.6v1H0z"/></svg>